<svg xmlns="http://www.w3.org/2000/svg" width="32" height="32" viewBox="0 0 32 32">
  <path d="M10 8h1v3h3v3h2v1h2v2h1v2h1v7h-1v2h-1v2h-2v1h-2v1H7v-1H5v-1H3v-2H2v-2H1v-7h1v-2h1v-2h2v-1h2v-3h3V8Zm15 6v1h-1v-1h1Zm-5-2v1h-1v-1h1Zm5 0v1h-1v-1h1Zm6 0v1h-1v-1h1Zm-10-1v1h-1v-1h1Zm9 0v1h-1v-1h1Zm-8-1v1h-1v-1h1Zm3 0v1h-1v-1h1Zm4 0v1h-1v-1h1Zm-1-1v1h-1V9h1Zm-6-1v1h-3V8h3ZM12 7v1h-1V7h1Zm7 0v1h-2V7h2Zm6 0v1h-3V7h3Zm-8-1v1h-5V6h5Zm11 0v1h-1V6h1Zm2 0v1h-1V6h1Zm2 0v1h-1V6h1ZM22 5v1h-1V5h1Zm2-1v1h-1V4h1Zm-4 0v1h-1V4h1Zm-2-1v1h-1V3h1Zm9 0v1h-1V3h1Zm1-1v1h-1V2h1Zm-5 0v1h-1V2h1Zm6-1v1h-1V1h1Zm1-1v1h-1V0h1Zm-8 0v1h-1V0h1Z"/>
  <path fill="#fff" d="M6 19H5v1h1v-1Zm-1 2H4v3h1v-3Zm1 4H5v1h1v-1Zm2 2H7v1h1v-1Z"/>
</svg>
